<svg xmlns="http://www.w3.org/2000/svg" viewBox="-3200 -950 4584 2900" preserveAspectRatio="xMaxYMid slice" role="img" aria-label="DealerLoft magnet with field lines pulling inward"><style>.dlf-l{opacity:.5}@media (prefers-reduced-motion:no-preference){.dlf-l{transform-box:view-box;transform-origin:118.03px 500px;animation:dlf-pull 2.4s cubic-bezier(.4,0,.2,1) infinite}.dlf-l2{animation-delay:0.3s}.dlf-l3{animation-delay:0.6s}.dlf-l4{animation-delay:0.9s}.dlf-l5{animation-delay:1.2s}.dlf-l6{animation-delay:1.5s}.dlf-l7{animation-delay:1.8s}@keyframes dlf-pull{0%{transform:scale(1.12);opacity:0}35%{opacity:.6}100%{transform:scale(.97);opacity:.12}}}</style><path class="dlf-l dlf-l1" d="M-3300 -217.3H118.0A717.3 717.3 0 0 1 118.0 1217.3H-3300" fill="none" stroke="#7B88FF" stroke-width="30.0"/><path class="dlf-l dlf-l2" d="M-3300 -412.4H118.0A912.4 912.4 0 0 1 118.0 1412.4H-3300" fill="none" stroke="#7B88FF" stroke-width="17.2"/><path class="dlf-l dlf-l3" d="M-3300 -660.6H118.0A1160.6 1160.6 0 0 1 118.0 1660.6H-3300" fill="none" stroke="#7B88FF" stroke-width="12.5"/><path class="dlf-l dlf-l4" d="M-3300 -976.4H118.0A1476.4 1476.4 0 0 1 118.0 1976.4H-3300" fill="none" stroke="#7B88FF" stroke-width="9.9"/><path class="dlf-l dlf-l5" d="M-3300 -1378.0H118.0A1878.0 1878.0 0 0 1 118.0 2378.0H-3300" fill="none" stroke="#7B88FF" stroke-width="8.3"/><path class="dlf-l dlf-l6" d="M-3300 -1888.8H118.0A2388.8 2388.8 0 0 1 118.0 2888.8H-3300" fill="none" stroke="#7B88FF" stroke-width="7.2"/><path class="dlf-l dlf-l7" d="M-3300 -2538.6H118.0A3038.6 3038.6 0 0 1 118.0 3538.6H-3300" fill="none" stroke="#7B88FF" stroke-width="6.3"/><path transform="translate(0.00 0.00) scale(1.00000)" d="M0 0.00H118.03A506.00 500.00 0 0 1 118.03 1000.00H0V809.02H118.03A309.02 309.02 0 0 0 118.03 190.98H0ZM0 309.02H118.03A190.98 190.98 0 0 1 118.03 690.98H0V618.03H118.03A118.03 118.03 0 0 0 118.03 381.97H0ZM0 427.05H118.03A72.95 72.95 0 0 1 118.03 572.95H0Z" fill="#FFFFFF"/></svg>
